<svg xmlns="http://www.w3.org/2000/svg" viewBox="0 0 128 128"><title>Bocholt erleben compact mark</title><g transform="translate(45.03,14.00) scale(0.066667)"><path d="M301.00,10.00 C450.00,10.00 539.00,-107.00 539.00,-248.00 C539.00,-386.00 454.00,-504.38 301.00,-504.38 C252.00,-504.38 209.00,-494.00 173.00,-463.00 L173.00,-704.46 L60.00,-704.46 L60.00,0.00 L165.00,0.00 L169.00,-39.00 C205.00,-7.00 249.00,10.00 301.00,10.00 Z M292.00,-410.00 C374.00,-410.00 423.00,-343.00 423.00,-248.00 C423.00,-154.00 374.00,-85.00 292.00,-85.00 C215.00,-85.00 168.00,-145.00 168.00,-248.00 C168.00,-349.00 215.00,-410.00 292.00,-410.00 Z" transform="translate(0,750.0)" fill="#1F2933"/><path d="M508.72,-230.00 C512.76,-252.00 515.79,-272.00 515.79,-292.00 C515.79,-424.00 421.86,-504.38 296.62,-504.38 C141.08,-504.38 54.22,-387.00 54.22,-249.00 C54.22,-109.00 145.12,10.00 325.91,10.00 C397.62,10.00 455.19,-9.00 493.57,-28.00 L485.49,-122.00 C443.07,-101.00 380.45,-85.00 333.99,-85.00 C259.25,-85.00 186.53,-123.00 172.39,-230.00 Z M298.64,-410.00 C370.35,-410.00 398.63,-359.00 398.63,-307.00 L177.44,-307.00 C190.57,-368.00 228.95,-410.00 298.64,-410.00 Z" transform="translate(0,1380.0)" fill="#1F2933"/></g></svg>