<svg xmlns="http://www.w3.org/2000/svg" viewBox="0 0 128 128" role="img"><title>Bocholt erleben – Direktwort App-Icon</title><rect width="128" height="128" fill="#0B3B2C"/><path d="M27.322,56.320 C31.502,56.320 34.239,52.973 34.239,47.993 C34.239,43.072 31.454,39.696 27.337,39.696 C25.263,39.696 23.568,40.529 22.541,42.287 L22.512,42.287 L22.512,33.448 L18.695,33.448 L18.695,56.000 L22.449,56.000 L22.449,53.564 L22.478,53.564 C23.481,55.409 25.234,56.320 27.322,56.320 Z M26.431,53.123 C23.931,53.123 22.299,51.113 22.299,47.993 C22.299,44.888 23.931,42.859 26.431,42.859 C28.790,42.859 30.383,44.695 30.383,47.993 C30.383,51.306 28.790,53.123 26.431,53.123 Z M44.034,56.363 C48.742,56.363 51.920,52.987 51.920,48.022 C51.920,43.057 48.742,39.652 44.034,39.652 C39.326,39.652 36.149,43.057 36.149,48.022 C36.149,52.987 39.326,56.363 44.034,56.363 Z M44.034,53.171 C41.569,53.171 40.009,51.214 40.009,48.022 C40.009,44.816 41.583,42.844 44.034,42.844 C46.471,42.844 48.045,44.830 48.045,48.022 C48.045,51.200 46.485,53.171 44.034,53.171 Z M61.621,56.363 C65.666,56.363 68.601,53.757 68.872,50.265 L65.104,50.265 C64.741,52.033 63.665,53.186 61.670,53.186 C59.156,53.186 57.674,51.171 57.674,48.022 C57.674,44.859 59.170,42.830 61.670,42.830 C63.651,42.830 64.847,44.026 65.133,45.736 L68.872,45.736 C68.543,42.181 65.637,39.652 61.621,39.652 C56.947,39.652 53.813,43.087 53.813,48.022 C53.813,52.958 56.947,56.363 61.621,56.363 Z M75.249,46.962 C75.249,44.239 76.745,43.043 78.741,43.043 C80.785,43.043 81.967,44.268 81.967,46.613 L81.967,56.000 L85.798,56.000 L85.798,46.007 C85.798,41.910 83.434,39.696 80.092,39.696 C77.942,39.696 76.338,40.621 75.249,42.360 L75.249,33.448 L71.432,33.448 L71.432,56.000 L75.249,56.000 L75.249,46.962 Z M96.332,56.363 C101.040,56.363 104.217,52.987 104.217,48.022 C104.217,43.057 101.040,39.652 96.332,39.652 C91.623,39.652 88.446,43.057 88.446,48.022 C88.446,52.987 91.623,56.363 96.332,56.363 Z M96.332,53.171 C93.866,53.171 92.306,51.214 92.306,48.022 C92.306,44.816 93.881,42.844 96.332,42.844 C98.768,42.844 100.342,44.830 100.342,48.022 C100.342,51.200 98.782,53.171 96.332,53.171 Z M110.668,33.448 L106.852,33.448 L106.852,56.000 L110.668,56.000 L110.668,33.448 Z M122.490,40.016 L119.235,40.016 L119.235,35.656 L115.403,35.656 L115.403,40.016 L112.618,40.016 L112.618,43.087 L115.403,43.087 L115.403,51.975 C115.403,54.712 116.934,56.000 120.189,56.000 L122.490,56.000 L122.490,52.929 L120.852,52.929 C119.612,52.929 119.235,52.546 119.235,51.413 L119.235,43.087 L122.490,43.087 L122.490,40.016 Z" fill="#FFFFFF"/><path d="M25.070,89.340 C28.455,89.340 31.119,87.342 31.672,84.455 L28.795,84.455 C28.369,85.869 27.068,86.848 25.115,86.848 C22.496,86.848 20.992,85.022 20.892,82.330 L31.899,82.330 L31.899,81.523 C31.899,76.906 29.148,73.707 24.916,73.707 C20.838,73.707 17.947,76.992 17.947,81.551 C17.947,86.068 20.639,89.340 25.070,89.340 Z M20.924,80.064 C21.178,77.685 22.691,76.199 24.943,76.199 C27.209,76.199 28.740,77.685 28.981,80.064 L20.924,80.064 Z M34.474,89.000 L37.460,89.000 L37.460,80.164 C37.460,77.726 38.833,76.580 40.519,76.580 C41.212,76.580 41.865,76.680 42.091,76.725 L42.091,73.934 C41.851,73.906 41.457,73.861 41.004,73.861 C39.105,73.861 37.945,74.840 37.392,76.467 L37.333,76.467 L37.333,74.047 L34.474,74.047 L34.474,89.000 Z M47.302,67.903 L44.316,67.903 L44.316,89.000 L47.302,89.000 L47.302,67.903 Z M57.058,89.340 C60.443,89.340 63.107,87.342 63.660,84.455 L60.783,84.455 C60.357,85.869 59.056,86.848 57.103,86.848 C54.484,86.848 52.980,85.022 52.880,82.330 L63.887,82.330 L63.887,81.523 C63.887,76.906 61.136,73.707 56.904,73.707 C52.826,73.707 49.935,76.992 49.935,81.551 C49.935,86.068 52.626,89.340 57.058,89.340 Z M52.912,80.064 C53.166,77.685 54.679,76.199 56.931,76.199 C59.197,76.199 60.728,77.685 60.968,80.064 L52.912,80.064 Z M74.052,89.299 C77.944,89.299 80.536,86.154 80.536,81.523 C80.536,76.906 77.931,73.748 74.065,73.748 C72.126,73.748 70.440,74.554 69.480,76.213 L69.448,76.213 L69.448,67.903 L66.462,67.903 L66.462,89.000 L69.394,89.000 L69.394,86.721 L69.421,86.721 C70.427,88.461 72.099,89.299 74.052,89.299 Z M73.445,86.721 C70.894,86.721 69.253,84.668 69.253,81.523 C69.253,78.379 70.894,76.312 73.445,76.312 C75.851,76.312 77.505,78.139 77.505,81.523 C77.505,84.895 75.851,86.721 73.445,86.721 Z M89.556,89.340 C92.940,89.340 95.605,87.342 96.158,84.455 L93.280,84.455 C92.854,85.869 91.554,86.848 89.601,86.848 C86.982,86.848 85.477,85.022 85.378,82.330 L96.384,82.330 L96.384,81.523 C96.384,76.906 93.634,73.707 89.401,73.707 C85.323,73.707 82.432,76.992 82.432,81.551 C82.432,86.068 85.124,89.340 89.556,89.340 Z M85.409,80.064 C85.663,77.685 87.177,76.199 89.429,76.199 C91.694,76.199 93.226,77.685 93.466,80.064 L85.409,80.064 Z M101.946,80.391 C101.946,77.613 103.518,76.426 105.557,76.426 C107.623,76.426 108.829,77.658 108.829,80.051 L108.829,89.000 L111.815,89.000 L111.815,79.684 C111.815,75.773 109.481,73.748 106.409,73.748 C104.438,73.748 102.911,74.600 101.891,76.299 L101.891,74.047 L98.960,74.047 L98.960,89.000 L101.946,89.000 L101.946,80.391 Z" fill="#FFFFFF"/><rect x="17" y="105" width="94" height="8" rx="4" fill="#9CCB45"/></svg>
